<svg xmlns="http://www.w3.org/2000/svg" width="18" height="18" viewBox="0 0 18 18">
  <g id="js" transform="translate(2489 -8012)">
    <rect id="矩形_878" data-name="矩形 878" width="18" height="18" transform="translate(-2489 8012)" fill="rgba(255,255,255,0)"/>
    <path id="jiaoseguanli" d="M85.71,131.749h3.857a1.929,1.929,0,0,0,1.929-1.929v-3.857a1.929,1.929,0,0,0-1.929-1.929H85.71a1.929,1.929,0,0,0-1.929,1.929v3.857A1.929,1.929,0,0,0,85.71,131.749Zm3.314,6.953a1.815,1.815,0,0,1,.02-.273,2.068,2.068,0,0,1-.2-.173,1.931,1.931,0,0,1,.212-2.912,2.19,2.19,0,0,1-.018-.286,1.913,1.913,0,0,1,.565-1.364.153.153,0,0,1,.018-.018h-9.7A1.929,1.929,0,0,0,78,135.606v4.5H89.63l-.041-.04A1.917,1.917,0,0,1,89.024,138.7Zm6.329-2.453h-.091a2.562,2.562,0,0,0-.271-.654s.008,0,.011-.007l.061-.062a.643.643,0,0,0-.909-.909l-.062.062s0,.006-.006.008a2.548,2.548,0,0,0-.662-.276v-.091a.643.643,0,0,0-1.286,0v.091a2.541,2.541,0,0,0-.642.265l-.073-.072a.643.643,0,0,0-.91.909l.067.067a2.55,2.55,0,0,0-.28.669H90.21a.643.643,0,0,0,0,1.286H90.3a2.556,2.556,0,0,0,.266.643l-.07.07a.643.643,0,1,0,.909.91l.064-.065a2.542,2.542,0,0,0,.668.279v.091a.643.643,0,0,0,1.286,0v-.091a2.562,2.562,0,0,0,.656-.272l.065.065a.643.643,0,0,0,.909-.909l-.065-.065a2.558,2.558,0,0,0,.273-.656h.091a.643.643,0,1,0,0-1.286Zm-2.571,1.929a1.286,1.286,0,1,1,1.286-1.286A1.287,1.287,0,0,1,92.782,138.178Z" transform="translate(-2566.996 7888.894)" fill="#333"/>
  </g>
</svg>
