<svg xmlns="http://www.w3.org/2000/svg" width="14" height="14.001" viewBox="0 0 14 14.001">
  <g id="js-2" transform="translate(2356 -8406.999)">
    <rect id="矩形_879" data-name="矩形 879" width="14" height="14" transform="translate(-2356 8407)" fill="rgba(0,0,0,0)"/>
    <g id="角色" transform="translate(-2566.51 8234.294)">
      <path id="减去_38" data-name="减去 38" d="M2528.151-8220.293h-6.464a3.182,3.182,0,0,1-3.178-3.179,1.89,1.89,0,0,1,.663-1.444l3.092-2.633a3.888,3.888,0,0,1-1.24-2.85,3.882,3.882,0,0,1,1.4-3,3.926,3.926,0,0,1,2.5-.9,4.067,4.067,0,0,1,.728.066,3.874,3.874,0,0,1,3.1,3.131,3.89,3.89,0,0,1-1.219,3.585l3.112,2.59a1.882,1.882,0,0,1,.68,1.45A3.182,3.182,0,0,1,2528.151-8220.293Zm-3.23-5.423a.572.572,0,0,0-.573.57v2.5a.572.572,0,0,0,.573.57.571.571,0,0,0,.57-.57v-2.5A.571.571,0,0,0,2524.921-8225.716Z" transform="translate(-2307.41 8407)" fill="#E6A23C"/>
    </g>
  </g>
</svg>
