<svg xmlns="http://www.w3.org/2000/svg" width="18" height="18" viewBox="0 0 18 18">
  <g id="rz" transform="translate(2489 -8012)">
    <rect id="矩形_878" data-name="矩形 878" width="18" height="18" transform="translate(-2489 8012)" fill="rgba(255,255,255,0)"/>
    <path id="rizhi" d="M192.478,142.048l-.086.1-.567,1.753c-.1.308.066.476.365.374l1.642-.546.172-.2a.082.082,0,0,1,.037-.062.177.177,0,0,0,.07-.234l-1.355-1.269a.23.23,0,0,0-.267.09Zm-6.463,4.007h-.743a.747.747,0,0,1-.739-.747V132.169a.755.755,0,0,1,.747-.755h.739Zm1.039,0V131.422H196.4a.747.747,0,0,1,.739.747v4.562l-2.106,2.418-1.642,1.864a.238.238,0,0,0,.062.287v.025l1.141,1.047a.345.345,0,0,0,.411,0l.033-.021,1.408-1.609.665-.772-.021,5.338a.756.756,0,0,1-.747.756h-9.287Z" transform="translate(-2670.835 7882.261)" fill="#333"/>
  </g>
</svg>
