<svg xmlns="http://www.w3.org/2000/svg" width="18" height="18" viewBox="0 0 18 18">
  <g id="yh" transform="translate(2489 -8012)">
    <rect id="矩形_878" data-name="矩形 878" width="18" height="18" transform="translate(-2489 8012)" fill="rgba(255,255,255,0)"/>
    <path id="zhanghu" d="M15.86,64.512a2.327,2.327,0,0,1,1.559.5A1.862,1.862,0,0,1,18,66.51v8.872a2.1,2.1,0,0,1-.16.815,2.126,2.126,0,0,1-.44.671,2.1,2.1,0,0,1-.655.456,1.918,1.918,0,0,1-.791.168H2.016a1.943,1.943,0,0,1-.783-.16,2.124,2.124,0,0,1-.639-.424,2.006,2.006,0,0,1-.432-.615A1.794,1.794,0,0,1,0,75.542V66.478A1.963,1.963,0,0,1,.53,65.064a1.96,1.96,0,0,1,1.487-.552ZM4.494,67.469a1.5,1.5,0,0,0-.575.112,1.52,1.52,0,0,0-.48.312,1.448,1.448,0,0,0-.328.48,1.506,1.506,0,0,0-.12.6,1.449,1.449,0,0,0,.12.591,1.571,1.571,0,0,0,.807.807,1.41,1.41,0,0,0,.575.12,1.546,1.546,0,0,0,.615-.12,1.448,1.448,0,0,0,.48-.328,1.641,1.641,0,0,0,.32-.48A1.549,1.549,0,0,0,5.6,67.893,1.509,1.509,0,0,0,4.494,67.469ZM7,73a1.466,1.466,0,0,0-.12-.583,1.469,1.469,0,0,0-.8-.8A1.466,1.466,0,0,0,5.5,71.5h-2a1.422,1.422,0,0,0-1.055.44A1.462,1.462,0,0,0,2.016,73v1.5H7V73Zm7.417,1.583a.623.623,0,0,0,.472-.16.537.537,0,0,0,.152-.384.525.525,0,0,0-.176-.392.689.689,0,0,0-.5-.168H9.609a.633.633,0,0,0-.48.168.55.55,0,0,0-.16.392.523.523,0,0,0,.16.384.628.628,0,0,0,.464.16h4.828Zm.016-2.062a.6.6,0,0,0,.464-.16.554.554,0,0,0,.144-.384.6.6,0,0,0-.136-.4.569.569,0,0,0-.456-.16H9.561a.6.6,0,0,0-.464.16.618.618,0,0,0-.008.783.569.569,0,0,0,.456.16Zm.016-2.03a.6.6,0,0,0,.416-.16.5.5,0,0,0,.176-.384.432.432,0,0,0-.176-.36.66.66,0,0,0-.416-.136H11.208a.627.627,0,0,0-.408.136.44.44,0,0,0-.168.36.511.511,0,0,0,.168.384.569.569,0,0,0,.408.16Z" transform="translate(-2489.002 7949.998)" fill="#333"/>
  </g>
</svg>
